mtllib Texture.mtl
o Gloss metal
v -3.529665 10.947945 -5.369041 
v -3.546277 1.233681 -4.593731 
v -3.529666 1.243523 -4.632660 
v 2.855279 1.238601 -4.540731 
v 2.838669 1.248443 -4.580598 
v 2.855281 10.967628 -5.279457 
v 2.838670 10.952865 -5.316511 
v -3.546275 10.967629 -5.331988 
v -3.579497 1.209075 -4.520093 
v 2.888499 1.213995 -4.466624 
v 2.888501 11.006997 -5.209571 
v -3.579495 11.002077 -5.262571 
v -3.619361 1.179549 -4.480694 
v 2.928364 1.184469 -4.426756 
v 2.925043 11.041445 -5.174394 
v -3.619359 11.036525 -5.228332 
v -3.662548 1.145101 -4.478818 
v 2.968228 1.150021 -4.424411 
v 2.968230 11.075892 -5.177208 
v -3.662546 11.070972 -5.232084 
v -3.702412 1.105732 -4.514464 
v 3.008093 1.110652 -4.459119 
v 3.008094 11.105419 -5.217545 
v -3.702410 11.100499 -5.272890 
v -3.735632 1.071284 -4.583881 
v 3.041313 1.076204 -4.528067 
v 3.041315 11.130025 -5.290245 
v -3.732309 11.125105 -5.346059 
v -3.745598 1.061442 -4.620466 
v 3.054601 1.066362 -4.564651 
v 3.054603 11.134945 -5.328705 
v -3.745597 11.130026 -5.384520 
v -17.283318 1.278456 -0.375633 
v -7.767258 1.268568 -2.489532 
v -7.790491 1.278452 -2.525122 
v -7.948557 7.614189 -3.290216 
v -7.970921 7.594421 -3.321969 
v -17.470142 7.614193 -1.133711 
v -17.463747 7.594425 -1.172480 
v -17.288952 1.268572 -0.333506 
v -7.721661 1.242210 -2.422189 
v -7.904915 7.660315 -3.231509 
v -17.484238 7.657025 -1.061930 
v -17.301092 1.242214 -0.253090 
v -7.683559 1.209263 -2.387948 
v -7.868986 7.703146 -3.206862 
v -17.506044 7.699856 -1.024210 
v -17.320726 1.209267 -0.205775 
v -7.648793 1.166432 -2.390776 
v -7.836610 7.742683 -3.220246 
v -17.541027 7.742688 -1.022341 
v -17.353319 1.166436 -0.193351 
v -7.622284 1.123600 -2.430065 
v -7.812381 7.778925 -3.269609 
v -17.584158 7.778929 -1.056452 
v -17.394169 1.123605 -0.217388 
v -7.608080 1.080769 -2.501367 
v -7.800025 7.801988 -3.349066 
v -17.629646 7.801992 -1.123315 
v -17.437702 1.080773 -0.275616 
v -7.606388 1.064295 -2.538567 
v -7.798983 7.808578 -3.389144 
v -17.647850 7.808582 -1.159036 
v -17.455256 1.064300 -0.308458 
v 6.954926 1.278453 -3.406760 
v 15.884397 1.268571 0.503280 
v 15.886648 1.278455 0.460837 
v 16.210613 7.614192 -0.250078 
v 16.211300 7.594425 -0.288910 
v 7.251534 7.614190 -4.128985 
v 7.279578 7.594422 -4.156507 
v 6.925513 1.268569 -3.376079 
v 15.881458 1.242213 0.584555 
v 16.211193 7.660318 -0.176928 
v 7.197790 7.657022 -4.079359 
v 6.868251 1.242211 -3.318327 
v 15.892007 1.209266 0.634684 
v 16.225651 7.703150 -0.135827 
v 7.157923 7.699852 -4.061781 
v 6.824475 1.209264 -3.291721 
v 15.921741 1.166435 0.652919 
v 16.259684 7.742687 -0.127522 
v 7.128580 7.742684 -4.080919 
v 6.790832 1.166432 -3.300930 
v 15.966330 1.123604 0.636850 
v 16.308378 7.778928 -0.153070 
v 7.113896 7.778926 -4.133911 
v 6.772043 1.123601 -3.344442 
v 16.019878 1.080773 0.587675 
v 16.365250 7.801991 -0.209919 
v 7.116639 7.801989 -4.214735 
v 6.771268 1.080770 -3.417141 
v 16.043201 1.064299 0.558644 
v 16.389744 7.808581 -0.241657 
v 7.123026 7.808578 -4.254314 
v 6.776483 1.064296 -3.454012 
vn 0.035957 -0.034289 0.032779 
vn 0.034929 0.038801 0.028593 
vn 0.036038 0.038801 0.027182 
vn -0.035490 0.038801 0.027893 
vn -0.036571 0.038801 0.026460 
vn -0.035681 -0.034076 0.033297 
vn -0.036556 -0.034289 0.032109 
vn 0.035062 -0.034076 0.033949 
vn 0.027512 0.033434 0.040846 
vn -0.028252 0.033434 0.040337 
vn -0.028144 -0.026942 0.045002 
vn 0.027405 -0.026710 0.045592 
vn 0.006276 0.010734 0.058211 
vn -0.007169 0.010734 0.058107 
vn -0.007172 -0.001690 0.059066 
vn 0.006279 -0.001690 0.059168 
vn -0.017690 -0.015301 0.054736 
vn 0.016832 -0.015050 0.055075 
vn 0.016784 0.023408 0.052091 
vn -0.017647 0.023169 0.051912 
vn -0.032067 -0.030137 0.040082 
vn 0.031715 -0.030137 0.040362 
vn 0.031606 0.035761 0.035571 
vn -0.032271 0.035761 0.034969 
vn -0.037928 -0.036382 0.027945 
vn 0.037387 -0.036382 0.028665 
vn 0.037473 0.040163 0.022930 
vn -0.037933 0.040163 0.022160 
vn -0.040065 -0.036792 0.024170 
vn 0.039594 -0.036792 0.024935 
vn 0.039616 0.040163 0.018989 
vn -0.040087 0.039971 0.018397 
vn 0.041200 0.039778 0.016229 
vn -0.029864 0.038998 0.033621 
vn -0.030190 0.039778 0.032394 
vn -0.027949 -0.031029 0.042416 
vn -0.028421 -0.032131 0.041266 
vn 0.043495 -0.031029 0.026239 
vn 0.043425 -0.032131 0.024998 
vn 0.041435 0.038998 0.017477 
vn -0.020681 0.033218 0.044855 
vn -0.019205 -0.022207 0.051779 
vn 0.039637 -0.022207 0.038455 
vn 0.037986 0.033218 0.031571 
vn 0.006577 0.014041 0.057469 
vn 0.006945 0.000910 0.059110 
vn 0.019196 0.000910 0.056336 
vn 0.018821 0.014041 0.054696 
vn 0.031163 -0.009966 0.049725 
vn 0.030107 0.023885 0.045455 
vn -0.007589 0.023885 0.053990 
vn -0.006703 -0.009966 0.058300 
vn 0.041361 -0.026710 0.033451 
vn 0.039682 0.036587 0.025096 
vn -0.025001 0.036587 0.039742 
vn -0.022917 -0.026710 0.048005 
vn 0.044046 -0.034076 0.021020 
vn 0.042040 0.040545 0.011481 
vn -0.032994 0.040545 0.028471 
vn -0.030695 -0.034076 0.037943 
vn 0.043589 -0.036587 0.017447 
vn 0.041263 0.042227 0.007568 
vn -0.033978 0.042227 0.024605 
vn -0.031822 -0.036587 0.034523 
vn 0.023680 0.039778 0.037417 
vn -0.043952 0.038998 0.009514 
vn -0.043490 0.039778 0.008331 
vn -0.047597 -0.031029 0.017744 
vn -0.047299 -0.032131 0.016538 
vn 0.019625 -0.031029 0.046852 
vn 0.020301 -0.032131 0.045810 
vn 0.023133 0.038998 0.038563 
vn -0.043168 0.033218 0.024003 
vn -0.046064 -0.022207 0.030464 
vn 0.009301 -0.022207 0.054437 
vn 0.012031 0.033218 0.047905 
vn -0.028610 0.014041 0.050273 
vn -0.029281 0.000910 0.051816 
vn -0.017754 0.000910 0.056807 
vn -0.017089 0.014041 0.055262 
vn -0.004192 -0.009966 0.058534 
vn -0.002524 0.023885 0.054463 
vn -0.037992 0.023885 0.039104 
vn -0.039820 -0.009966 0.043106 
vn 0.013646 -0.026710 0.051415 
vn 0.017222 0.036587 0.043679 
vn -0.043638 0.036587 0.017326 
vn -0.046833 -0.026710 0.025227 
vn 0.023150 -0.034076 0.042965 
vn 0.027161 0.040545 0.034080 
vn -0.043438 0.040545 0.003510 
vn -0.047173 -0.034076 0.012513 
vn 0.024890 -0.036587 0.039811 
vn 0.028843 0.042227 0.030463 
vn -0.041951 0.042227 -0.000192 
vn -0.046064 -0.036587 0.009087 
s on 
f 1//1 2//2 3//3 
f 2//2 4//4 3//3 
f 3//3 4//4 5//5 
f 4//4 6//6 5//5 
f 5//5 6//6 7//7 
f 6//6 8//8 7//7 
f 7//7 8//8 1//1 
f 8//8 2//2 1//1 
f 1//1 2//2 2//2 
f 2//2 8//8 2//2 
f 2//2 8//8 8//8 
f 8//8 9//9 8//8 
f 8//8 9//9 2//2 
f 9//9 10//10 2//2 
f 2//2 10//10 4//4 
f 10//10 11//11 4//4 
f 4//4 11//11 6//6 
f 11//11 12//12 6//6 
f 6//6 12//12 8//8 
f 12//12 9//9 8//8 
f 8//8 9//9 9//9 
f 9//9 12//12 9//9 
f 9//9 12//12 12//12 
f 12//12 13//13 12//12 
f 12//12 13//13 9//9 
f 13//13 14//14 9//9 
f 9//9 14//14 10//10 
f 14//14 15//15 10//10 
f 10//10 15//15 11//11 
f 15//15 16//16 11//11 
f 11//11 16//16 12//12 
f 16//16 13//13 12//12 
f 12//12 13//13 13//13 
f 13//13 16//16 13//13 
f 13//13 16//16 16//16 
f 16//16 17//17 16//16 
f 16//16 17//17 13//13 
f 17//17 18//18 13//13 
f 13//13 18//18 14//14 
f 18//18 19//19 14//14 
f 14//14 19//19 15//15 
f 19//19 20//20 15//15 
f 15//15 20//20 16//16 
f 20//20 17//17 16//16 
f 16//16 17//17 17//17 
f 17//17 20//20 17//17 
f 17//17 20//20 20//20 
f 20//20 21//21 20//20 
f 20//20 21//21 17//17 
f 21//21 22//22 17//17 
f 17//17 22//22 18//18 
f 22//22 23//23 18//18 
f 18//18 23//23 19//19 
f 23//23 24//24 19//19 
f 19//19 24//24 20//20 
f 24//24 21//21 20//20 
f 20//20 21//21 21//21 
f 21//21 24//24 21//21 
f 21//21 24//24 24//24 
f 24//24 25//25 24//24 
f 24//24 25//25 21//21 
f 25//25 26//26 21//21 
f 21//21 26//26 22//22 
f 26//26 27//27 22//22 
f 22//22 27//27 23//23 
f 27//27 28//28 23//23 
f 23//23 28//28 24//24 
f 28//28 25//25 24//24 
f 24//24 25//25 25//25 
f 25//25 28//28 25//25 
f 25//25 28//28 28//28 
f 28//28 29//29 28//28 
f 28//28 29//29 25//25 
f 29//29 30//30 25//25 
f 25//25 30//30 26//26 
f 30//30 31//31 26//26 
f 26//26 31//31 27//27 
f 31//31 32//32 27//27 
f 27//27 32//32 28//28 
f 32//32 29//29 28//28 
f 28//28 29//29 29//29 
f 29//29 33//33 29//29 
f 29//29 33//33 33//33 
f 33//33 34//34 33//33 
f 33//33 34//34 35//35 
f 34//34 36//36 35//35 
f 35//35 36//36 37//37 
f 36//36 38//38 37//37 
f 37//37 38//38 39//39 
f 38//38 40//40 39//39 
f 39//39 40//40 33//33 
f 40//40 34//34 33//33 
f 33//33 34//34 34//34 
f 34//34 40//40 34//34 
f 34//34 40//40 40//40 
f 40//40 41//41 40//40 
f 40//40 41//41 34//34 
f 41//41 42//42 34//34 
f 34//34 42//42 36//36 
f 42//42 43//43 36//36 
f 36//36 43//43 38//38 
f 43//43 44//44 38//38 
f 38//38 44//44 40//40 
f 44//44 41//41 40//40 
f 40//40 41//41 41//41 
f 41//41 44//44 41//41 
f 41//41 44//44 44//44 
f 44//44 45//45 44//44 
f 44//44 45//45 41//41 
f 45//45 46//46 41//41 
f 41//41 46//46 42//42 
f 46//46 47//47 42//42 
f 42//42 47//47 43//43 
f 47//47 48//48 43//43 
f 43//43 48//48 44//44 
f 48//48 45//45 44//44 
f 44//44 45//45 45//45 
f 45//45 48//48 45//45 
f 45//45 48//48 48//48 
f 48//48 49//49 48//48 
f 48//48 49//49 45//45 
f 49//49 50//50 45//45 
f 45//45 50//50 46//46 
f 50//50 51//51 46//46 
f 46//46 51//51 47//47 
f 51//51 52//52 47//47 
f 47//47 52//52 48//48 
f 52//52 49//49 48//48 
f 48//48 49//49 49//49 
f 49//49 52//52 49//49 
f 49//49 52//52 52//52 
f 52//52 53//53 52//52 
f 52//52 53//53 49//49 
f 53//53 54//54 49//49 
f 49//49 54//54 50//50 
f 54//54 55//55 50//50 
f 50//50 55//55 51//51 
f 55//55 56//56 51//51 
f 51//51 56//56 52//52 
f 56//56 53//53 52//52 
f 52//52 53//53 53//53 
f 53//53 56//56 53//53 
f 53//53 56//56 56//56 
f 56//56 57//57 56//56 
f 56//56 57//57 53//53 
f 57//57 58//58 53//53 
f 53//53 58//58 54//54 
f 58//58 59//59 54//54 
f 54//54 59//59 55//55 
f 59//59 60//60 55//55 
f 55//55 60//60 56//56 
f 60//60 57//57 56//56 
f 56//56 57//57 57//57 
f 57//57 60//60 57//57 
f 57//57 60//60 60//60 
f 60//60 61//61 60//60 
f 60//60 61//61 57//57 
f 61//61 62//62 57//57 
f 57//57 62//62 58//58 
f 62//62 63//63 58//58 
f 58//58 63//63 59//59 
f 63//63 64//64 59//59 
f 59//59 64//64 60//60 
f 64//64 61//61 60//60 
f 60//60 61//61 61//61 
f 61//61 65//65 61//61 
f 61//61 65//65 65//65 
f 65//65 66//66 65//65 
f 65//65 66//66 67//67 
f 66//66 68//68 67//67 
f 67//67 68//68 69//69 
f 68//68 70//70 69//69 
f 69//69 70//70 71//71 
f 70//70 72//72 71//71 
f 71//71 72//72 65//65 
f 72//72 66//66 65//65 
f 65//65 66//66 66//66 
f 66//66 72//72 66//66 
f 66//66 72//72 72//72 
f 72//72 73//73 72//72 
f 72//72 73//73 66//66 
f 73//73 74//74 66//66 
f 66//66 74//74 68//68 
f 74//74 75//75 68//68 
f 68//68 75//75 70//70 
f 75//75 76//76 70//70 
f 70//70 76//76 72//72 
f 76//76 73//73 72//72 
f 72//72 73//73 73//73 
f 73//73 76//76 73//73 
f 73//73 76//76 76//76 
f 76//76 77//77 76//76 
f 76//76 77//77 73//73 
f 77//77 78//78 73//73 
f 73//73 78//78 74//74 
f 78//78 79//79 74//74 
f 74//74 79//79 75//75 
f 79//79 80//80 75//75 
f 75//75 80//80 76//76 
f 80//80 77//77 76//76 
f 76//76 77//77 77//77 
f 77//77 80//80 77//77 
f 77//77 80//80 80//80 
f 80//80 81//81 80//80 
f 80//80 81//81 77//77 
f 81//81 82//82 77//77 
f 77//77 82//82 78//78 
f 82//82 83//83 78//78 
f 78//78 83//83 79//79 
f 83//83 84//84 79//79 
f 79//79 84//84 80//80 
f 84//84 81//81 80//80 
f 80//80 81//81 81//81 
f 81//81 84//84 81//81 
f 81//81 84//84 84//84 
f 84//84 85//85 84//84 
f 84//84 85//85 81//81 
f 85//85 86//86 81//81 
f 81//81 86//86 82//82 
f 86//86 87//87 82//82 
f 82//82 87//87 83//83 
f 87//87 88//88 83//83 
f 83//83 88//88 84//84 
f 88//88 85//85 84//84 
f 84//84 85//85 85//85 
f 85//85 88//88 85//85 
f 85//85 88//88 88//88 
f 88//88 89//89 88//88 
f 88//88 89//89 85//85 
f 89//89 90//90 85//85 
f 85//85 90//90 86//86 
f 90//90 91//91 86//86 
f 86//86 91//91 87//87 
f 91//91 92//92 87//87 
f 87//87 92//92 88//88 
f 92//92 89//89 88//88 
f 88//88 89//89 89//89 
f 89//89 92//92 89//89 
f 89//89 92//92 92//92 
f 92//92 93//93 92//92 
f 92//92 93//93 89//89 
f 93//93 94//94 89//89 
f 89//89 94//94 90//90 
f 94//94 95//95 90//90 
f 90//90 95//95 91//91 
f 95//95 96//96 91//91 
f 91//91 96//96 92//92 
f 96//96 93//93 92//92 

